<svg width="255" height="59" viewBox="0 0 255 59" fill="none" xmlns="http://www.w3.org/2000/svg">
<path d="M2.304 42.5V18.66H6.656V42.5H2.304ZM9.2895 42.5L17.5135 18.66H23.1455L31.3695 42.5H26.6335L24.9375 37.38H15.7215L13.9935 42.5H9.2895ZM16.9695 33.54H23.6895L19.7215 21.668H20.9375L16.9695 33.54ZM34.0228 42.5V18.66H42.8868C44.5081 18.66 45.9374 18.9587 47.1748 19.556C48.4334 20.132 49.4148 20.9853 50.1188 22.116C50.8228 23.2253 51.1748 24.58 51.1748 26.18C51.1748 27.8227 50.7801 29.22 49.9908 30.372C49.2228 31.524 48.1774 32.3773 46.8548 32.932L52.3268 42.5H47.3988L41.5428 32.036L44.3588 33.7H38.3748V42.5H34.0228ZM38.3748 29.86H42.9508C43.7401 29.86 44.4228 29.7107 44.9988 29.412C45.5748 29.092 46.0228 28.6547 46.3428 28.1C46.6628 27.5453 46.8228 26.9053 46.8228 26.18C46.8228 25.4333 46.6628 24.7933 46.3428 24.26C46.0228 23.7053 45.5748 23.2787 44.9988 22.98C44.4228 22.66 43.7401 22.5 42.9508 22.5H38.3748V29.86ZM53.227 42.5L61.451 18.66H67.083L75.307 42.5H70.571L68.875 37.38H59.659L57.931 42.5H53.227ZM60.907 33.54H67.627L63.659 21.668H64.875L60.907 33.54ZM94.9438 42.884C93.2371 42.884 91.6584 42.5747 90.2078 41.956C88.7571 41.3373 87.4878 40.4733 86.3998 39.364C85.3118 38.2547 84.4584 36.9533 83.8398 35.46C83.2424 33.9667 82.9438 32.3347 82.9438 30.564C82.9438 28.7933 83.2318 27.1613 83.8078 25.668C84.4051 24.1533 85.2371 22.852 86.3038 21.764C87.3918 20.6547 88.6611 19.8013 90.1118 19.204C91.5624 18.5853 93.1411 18.276 94.8478 18.276C96.5544 18.276 98.0798 18.564 99.4237 19.14C100.789 19.716 101.941 20.484 102.88 21.444C103.818 22.3827 104.49 23.4173 104.896 24.548L101.024 26.404C100.576 25.1667 99.8184 24.164 98.7518 23.396C97.6851 22.628 96.3838 22.244 94.8478 22.244C93.3544 22.244 92.0318 22.596 90.8798 23.3C89.7491 24.004 88.8638 24.9747 88.2238 26.212C87.6051 27.4493 87.2958 28.9 87.2958 30.564C87.2958 32.228 87.6158 33.6893 88.2558 34.948C88.9171 36.1853 89.8238 37.156 90.9758 37.86C92.1278 38.564 93.4504 38.916 94.9438 38.916C96.1598 38.916 97.2798 38.6813 98.3038 38.212C99.3278 37.7213 100.149 37.0387 100.768 36.164C101.386 35.268 101.696 34.212 101.696 32.996V31.172L103.68 32.9H94.8478V29.22H106.048V31.62C106.048 33.4547 105.738 35.076 105.12 36.484C104.501 37.892 103.658 39.076 102.592 40.036C101.546 40.9747 100.362 41.6893 99.0398 42.18C97.7171 42.6493 96.3518 42.884 94.9438 42.884ZM107.29 42.5L115.514 18.66H121.146L129.37 42.5H124.634L122.938 37.38H113.722L111.994 42.5H107.29ZM114.97 33.54H121.69L117.722 21.668H118.938L114.97 33.54ZM132.023 42.5V18.66H136.183L145.111 30.788H143.127L151.863 18.66H156.023V42.5H151.639V23.62L153.335 24.036L144.279 36.1H143.767L134.935 24.036L136.375 23.62V42.5H132.023ZM160.585 42.5V18.66H176.425V22.5H164.937V28.612H175.785V32.452H164.937V38.66H176.425V42.5H160.585ZM188.129 42.884C186.614 42.884 185.206 42.6067 183.905 42.052C182.625 41.4973 181.515 40.7293 180.577 39.748C179.659 38.7453 178.987 37.5827 178.561 36.26L182.177 34.692C182.753 36.0573 183.585 37.1347 184.673 37.924C185.761 38.692 186.987 39.076 188.353 39.076C189.121 39.076 189.782 38.9587 190.337 38.724C190.913 38.468 191.35 38.1267 191.649 37.7C191.969 37.2733 192.129 36.7613 192.129 36.164C192.129 35.46 191.915 34.884 191.489 34.436C191.083 33.9667 190.465 33.604 189.633 33.348L185.057 31.876C183.201 31.3 181.803 30.436 180.865 29.284C179.926 28.132 179.457 26.7773 179.457 25.22C179.457 23.8547 179.787 22.6493 180.449 21.604C181.131 20.5587 182.07 19.748 183.265 19.172C184.481 18.5747 185.867 18.276 187.425 18.276C188.854 18.276 190.166 18.532 191.361 19.044C192.555 19.5347 193.579 20.228 194.433 21.124C195.307 21.9987 195.958 23.0333 196.385 24.228L192.801 25.828C192.331 24.6333 191.627 23.716 190.689 23.076C189.75 22.4147 188.662 22.084 187.425 22.084C186.699 22.084 186.059 22.212 185.505 22.468C184.95 22.7027 184.513 23.044 184.193 23.492C183.894 23.9187 183.745 24.4307 183.745 25.028C183.745 25.6893 183.958 26.276 184.385 26.788C184.811 27.2787 185.462 27.6627 186.337 27.94L190.721 29.316C192.619 29.9347 194.038 30.788 194.977 31.876C195.937 32.964 196.417 34.308 196.417 35.908C196.417 37.2733 196.065 38.4787 195.361 39.524C194.657 40.5693 193.686 41.3907 192.449 41.988C191.211 42.5853 189.771 42.884 188.129 42.884Z" fill="#E5E5E5"/>
<path d="M229.46 34.5618C227.95 44.8033 233.875 51.7564 238.525 54.932C239.222 55.408 239.16 56.511 238.367 56.801C228.478 60.4193 219.575 58.8745 214.939 57.1125C213.829 56.6907 213.19 55.5575 213.366 54.3834C214.44 47.2268 218.675 39.1201 220.832 35.718C222.92 31.4443 220.678 28.8496 219.297 28.0864C207.894 22.3033 205.051 8.85115 205.001 1.86955C204.995 1.13334 205.116 -0.112904 205.842 0.00910078C206.482 0.116639 206.643 0.785283 206.938 1.36352C208.657 4.73874 212.924 6.8256 214.997 7.48125C224.67 8.85493 227.281 16.6391 227.588 17.4023C227.833 18.0128 228.202 17.8602 228.355 17.7075C229.323 16.0504 230.856 14.7618 232.467 13.7983C235.895 11.7484 240.052 11.7308 244.03 11.3703C249.99 10.8302 251.42 9.44316 253.229 8.24441C255.072 7.02336 255.123 8.24441 254.918 9.00757C250.275 20.4989 241.679 26.1896 235.431 28.5179C232.59 29.5764 229.902 31.5628 229.46 34.5618Z" fill="url(#paint0_linear_3_80)"/>
<defs>
<linearGradient id="paint0_linear_3_80" x1="230" y1="22.5" x2="230" y2="52.5" gradientUnits="userSpaceOnUse">
<stop stop-color="#E5E5E5"/>
<stop offset="1" stop-color="white" stop-opacity="0"/>
</linearGradient>
</defs>
</svg>
